<svg width="38" height="56" viewBox="0 0 38 56" fill="none" xmlns="http://www.w3.org/2000/svg">
<path d="M25.917 1.90612C26.5208 1.30204 27.2376 0.822787 28.0266 0.495735C28.8155 0.168684 29.6612 0.000232387 30.5153 2.40274e-07C31.3693 -0.000231906 32.2151 0.167758 33.0042 0.494381C33.7934 0.821004 34.5105 1.29986 35.1145 1.90361C35.7186 2.50737 36.1979 3.22419 36.5249 4.01316C36.852 4.80212 37.0204 5.64778 37.0206 6.50185C37.0209 7.35592 36.8529 8.20167 36.5263 8.99081C36.1996 9.77995 35.7208 10.497 35.117 11.1011L18.394 27.8191L35.112 44.5371C35.7158 45.1412 36.1946 45.8583 36.5213 46.6474C36.8479 47.4366 37.0159 48.2823 37.0156 49.1364C37.0154 49.9905 36.847 50.8361 36.5199 51.6251C36.1929 52.414 35.7136 53.1309 35.1095 53.7346C34.5054 54.3384 33.7884 54.8172 32.9992 55.1438C32.2101 55.4705 31.3643 55.6385 30.5103 55.6382C29.6562 55.638 28.8105 55.4696 28.0216 55.1425C27.2326 54.8154 26.5158 54.3362 25.912 53.7321L0.00402832 27.8191L25.917 1.90612Z" fill="#FFBF0B"/>
</svg>
