<svg width="38" height="57" viewBox="0 0 38 57" fill="none" xmlns="http://www.w3.org/2000/svg">
<path d="M12.087 2.89898C10.8677 1.67964 9.21391 0.994629 7.48952 0.994629C5.76512 0.994629 4.11135 1.67964 2.89202 2.89898C1.67268 4.11831 0.987671 5.77207 0.987671 7.49647C0.987671 9.22087 1.67268 10.8746 2.89202 12.094L19.61 28.812L2.89202 45.53C2.28859 46.1337 1.81 46.8504 1.48355 47.6391C1.15711 48.4278 0.989209 49.2731 0.989441 50.1267C0.989673 50.9803 1.15803 51.8255 1.48491 52.6141C1.81178 53.4026 2.29077 54.1191 2.89452 54.7225C3.49827 55.3259 4.21496 55.8045 5.00368 56.1309C5.79239 56.4574 6.63768 56.6253 7.49129 56.6251C8.34489 56.6248 9.19009 56.4565 9.97863 56.1296C10.7672 55.8027 11.4836 55.3237 12.087 54.72L38 28.812L12.087 2.89898Z" fill="#FFBF0B"/>
</svg>
