<svg width="37" height="35" viewBox="0 0 37 35" fill="none" xmlns="http://www.w3.org/2000/svg">
<path d="M18.9182 0.32373L24.1435 10.9007C24.1858 10.9864 24.2484 11.0605 24.3259 11.1166C24.4033 11.1727 24.4932 11.2091 24.5879 11.2227L36.2717 12.9227C36.3807 12.9386 36.4831 12.9846 36.5673 13.0556C36.6515 13.1265 36.7141 13.2195 36.7482 13.3242C36.7822 13.4288 36.7863 13.5409 36.7599 13.6477C36.7336 13.7545 36.6779 13.8519 36.5991 13.9287L28.1445 22.1617C28.0759 22.2284 28.0246 22.3108 27.9949 22.4017C27.9653 22.4927 27.9582 22.5895 27.9743 22.6837L29.9703 34.3087C29.9888 34.4171 29.9767 34.5285 29.9352 34.6303C29.8937 34.7321 29.8246 34.8203 29.7356 34.885C29.6466 34.9497 29.5413 34.9882 29.4316 34.9963C29.3218 35.0044 29.212 34.9817 29.1145 34.9307L18.6639 29.4417C18.5792 29.3972 18.4849 29.374 18.3891 29.374C18.2934 29.374 18.1991 29.3972 18.1143 29.4417L7.66375 34.9307C7.56624 34.9817 7.45643 35.0044 7.34669 34.9963C7.23694 34.9882 7.13162 34.9497 7.04264 34.885C6.95365 34.8203 6.88451 34.7321 6.84303 34.6303C6.80156 34.5285 6.78938 34.4171 6.80787 34.3087L8.80391 22.6837C8.82011 22.5895 8.81306 22.4927 8.78341 22.4017C8.75377 22.3108 8.70239 22.2284 8.63373 22.1617L0.182175 13.9247C0.103366 13.8479 0.047654 13.7505 0.0213062 13.6437C-0.00504156 13.5369 -0.00097915 13.4248 0.0330674 13.3202C0.067114 13.2155 0.129786 13.1225 0.213976 13.0516C0.298166 12.9806 0.400518 12.9346 0.509502 12.9187L12.1943 11.2227C12.289 11.209 12.3789 11.1725 12.4563 11.1165C12.5337 11.0604 12.5963 10.9863 12.6388 10.9007L17.8641 0.32373C17.9134 0.226362 17.9887 0.144553 18.0818 0.0874023C18.1748 0.0302513 18.2819 0 18.3911 0C18.5003 0 18.6074 0.0302513 18.7005 0.0874023C18.7935 0.144553 18.8689 0.226362 18.9182 0.32373Z" fill="#F3CC30"/>
<path d="M18.5978 2.79785L13.893 11.9099C13.7714 12.145 13.5926 12.3458 13.3728 12.4937C13.1531 12.6416 12.8996 12.7317 12.6357 12.7559L2.41138 13.6878L13.2143 14.1878C13.5487 14.2035 13.8794 14.1124 14.1586 13.9278C14.4377 13.7432 14.6508 13.4745 14.7669 13.1609L18.5978 2.79785Z" fill="#F7DB5E"/>
<path d="M6.69992 32.9427L6.46769 34.2958C6.45025 34.4051 6.46342 34.5171 6.50576 34.6194C6.5481 34.7217 6.61796 34.8103 6.70759 34.8755C6.79722 34.9406 6.90312 34.9796 7.0136 34.9883C7.12408 34.997 7.23482 34.9751 7.33356 34.9248L17.9023 29.3737C17.988 29.3291 18.0833 29.3057 18.1801 29.3057C18.2768 29.3057 18.3721 29.3291 18.4578 29.3737L29.0265 34.9248C29.1253 34.9751 29.236 34.997 29.3465 34.9883C29.457 34.9796 29.5629 34.9406 29.6525 34.8755C29.7422 34.8103 29.812 34.7217 29.8543 34.6194C29.8967 34.5171 29.9099 34.4051 29.8924 34.2958L27.8744 22.5388C27.8582 22.4435 27.8654 22.3457 27.8952 22.2538C27.925 22.1619 27.9766 22.0785 28.0455 22.0108L36.5962 13.6848C36.6745 13.6065 36.7297 13.5082 36.7556 13.4006C36.7815 13.2931 36.7771 13.1804 36.743 13.0752C36.7088 12.9699 36.6461 12.8762 36.5619 12.8043C36.4777 12.7324 36.3752 12.6851 36.2658 12.6678L32.3079 12.0928C25.9074 23.5698 16.1044 29.6127 6.69992 32.9427Z" fill="#EDBD31"/>
</svg>
