<svg width="50" height="50" viewBox="0 0 50 50" fill="none" xmlns="http://www.w3.org/2000/svg">
<path d="M25.0631 6.929C30.6531 6.929 31.3151 6.952 33.5231 7.056C34.8534 7.07282 36.17 7.3268 37.4111 7.806C38.327 8.16003 39.1505 8.71777 39.8191 9.437C40.5193 10.1475 41.054 11.0039 41.3851 11.945C41.8472 13.2456 42.0908 14.6138 42.1061 15.994C42.2061 18.294 42.2281 18.983 42.2281 24.806C42.2281 30.629 42.2061 31.318 42.1061 33.618C42.0908 34.9982 41.8472 36.3664 41.3851 37.667C41.0533 38.6077 40.5187 39.464 39.8191 40.175C39.1509 40.8948 38.3274 41.4526 37.4111 41.806C36.17 42.2852 34.8534 42.5392 33.5231 42.556C31.3161 42.656 30.6531 42.683 25.0631 42.683C19.4731 42.683 18.8101 42.661 16.6031 42.556C15.2728 42.5392 13.9562 42.2852 12.7151 41.806C11.7991 41.452 10.9757 40.8942 10.3071 40.175C9.60684 39.4645 9.07212 38.6081 8.74108 37.667C8.279 36.3664 8.03537 34.9982 8.02008 33.618C7.92008 31.318 7.89808 30.629 7.89808 24.806C7.89808 18.983 7.92008 18.294 8.02008 15.994C8.03537 14.6138 8.279 13.2456 8.74108 11.945C9.0731 11.0042 9.60808 10.1479 10.3081 9.437C10.976 8.71772 11.7992 8.16025 12.7151 7.807C13.9562 7.3278 15.2728 7.07382 16.6031 7.057C18.8111 6.957 19.4731 6.93 25.0631 6.93V6.929ZM25.0631 3.001C19.3771 3.001 18.6631 3.026 16.4311 3.133C14.6908 3.16935 12.9705 3.51191 11.3491 4.145C9.94219 4.69907 8.67576 5.55838 7.64108 6.661C6.56962 7.76061 5.74644 9.07721 5.22708 10.522C4.61662 12.2216 4.28796 14.0094 4.25408 15.815C4.15108 18.141 4.12708 18.884 4.12708 24.806C4.12708 30.728 4.15108 31.471 4.25308 33.8C4.2876 35.6046 4.6166 37.3914 5.22708 39.09C5.74655 40.5353 6.57009 41.8522 7.64208 42.952C8.67701 44.0541 9.94339 44.913 11.3501 45.467C12.9698 46.1003 14.6884 46.4435 16.4271 46.481C18.6601 46.587 19.3731 46.613 25.0591 46.613C30.7451 46.613 31.4591 46.588 33.6911 46.481C35.4315 46.4441 37.1518 46.1008 38.7731 45.467C40.1799 44.9132 41.4463 44.0543 42.4811 42.952C43.5529 41.8521 44.3764 40.5352 44.8961 39.09C45.5066 37.3905 45.8353 35.6026 45.8691 33.797C45.9691 31.471 45.9951 30.728 45.9951 24.806C45.9951 18.884 45.9711 18.141 45.8691 15.815C45.8353 14.0094 45.5066 12.2215 44.8961 10.522C44.3781 9.07718 43.5563 7.76024 42.4861 6.66C41.4511 5.55792 40.1848 4.69898 38.7781 4.145C37.1562 3.51212 35.4357 3.16924 33.6951 3.132C31.4621 3.025 30.7491 3 25.0631 3V3.001Z" fill="white"/>
<path d="M25.063 13.1851C19.125 13.1851 14.312 18.3851 14.312 24.8061C14.312 31.2271 19.125 36.4271 25.063 36.4271C31.001 36.4271 35.813 31.2271 35.813 24.8061C35.813 18.3851 31 13.1851 25.063 13.1851ZM25.063 32.3491C23.5461 32.4673 22.0288 32.1255 20.7092 31.3682C19.3895 30.6109 18.3289 29.4733 17.6657 28.104C17.0024 26.7347 16.7675 25.1972 16.9914 23.6922C17.2154 22.1873 17.8879 20.7849 18.9211 19.668C19.9543 18.5512 21.3002 17.7717 22.7832 17.4315C24.2662 17.0913 25.8173 17.2061 27.234 17.7609C28.6507 18.3157 29.8673 19.2848 30.7248 20.5416C31.5823 21.7984 32.041 23.2846 32.041 24.8061C32.113 26.7309 31.4189 28.6057 30.1109 30.0197C28.8029 31.4336 26.9876 32.2713 25.063 32.3491Z" fill="white"/>
<path d="M36.2381 15.614C37.6254 15.614 38.7501 14.4893 38.7501 13.102C38.7501 11.7146 37.6254 10.59 36.2381 10.59C34.8507 10.59 33.7261 11.7146 33.7261 13.102C33.7261 14.4893 34.8507 15.614 36.2381 15.614Z" fill="white"/>
</svg>
