<svg width="50" height="50" viewBox="0 0 50 50" fill="none" xmlns="http://www.w3.org/2000/svg">
<path d="M17.4581 43.5821C34.4431 43.5821 43.7331 29.5101 43.7331 17.3071C43.7331 16.9071 43.7241 16.5091 43.7061 16.1131C45.5133 14.805 47.0733 13.1858 48.3131 11.3311C46.6289 12.0774 44.8424 12.5672 43.0131 12.7841C44.9396 11.6293 46.3809 9.81408 47.0691 7.67607C45.256 8.7525 43.272 9.51077 41.2031 9.91807C39.811 8.43719 37.9696 7.45649 35.9639 7.12779C33.9582 6.79908 31.9001 7.1407 30.1082 8.09975C28.3162 9.05881 26.8904 10.5818 26.0514 12.433C25.2124 14.2842 25.007 16.3604 25.4671 18.3401C21.7958 18.1562 18.2042 17.2023 14.9255 15.5401C11.6468 13.878 8.75441 11.5448 6.4361 8.69207C5.25476 10.7247 4.89262 13.1311 5.42342 15.4214C5.95422 17.7116 7.33806 19.7134 9.2931 21.0191C7.82663 20.9742 6.39239 20.5778 5.1111 19.8631C5.1111 19.9011 5.1111 19.9401 5.1111 19.9801C5.11163 22.1122 5.84972 24.1784 7.20015 25.8283C8.55057 27.4782 10.4302 28.6101 12.5201 29.0321C11.7267 29.2474 10.9082 29.3564 10.0861 29.3561C9.50345 29.3556 8.92216 29.2997 8.3501 29.1891C8.9397 31.0237 10.0881 32.6281 11.6346 33.7778C13.1811 34.9275 15.0484 35.565 16.9751 35.6011C13.7035 38.1698 9.66264 39.5628 5.5031 39.5561C4.76791 39.5561 4.03333 39.5133 3.3031 39.4281C7.52381 42.1451 12.4385 43.5874 17.4581 43.5821Z" fill="white"/>
</svg>
