<svg width="50" height="50" viewBox="0 0 50 50" fill="none" xmlns="http://www.w3.org/2000/svg">
<path d="M47.0001 24.633C47.0176 18.9132 44.7623 13.4208 40.7303 9.36382C36.6983 5.30686 31.2199 3.01774 25.5001 3C19.7803 3.01774 14.3019 5.30686 10.2699 9.36382C6.23787 13.4208 3.98257 18.9132 4.0001 24.633C3.98922 29.77 5.80948 34.7426 9.1342 38.6586C12.4589 42.5745 17.0704 45.1774 22.1411 46V30.886H16.6821V24.633H22.1411V19.867C22.1411 14.445 25.3511 11.451 30.2621 11.451C31.8746 11.4734 33.4833 11.6145 35.0751 11.873V17.2H32.3641C29.6931 17.2 28.8641 18.868 28.8641 20.578V24.636H34.8271L33.8741 30.889H28.8641V46C33.9339 45.1763 38.5442 42.573 41.8679 38.6572C45.1916 34.7413 47.0112 29.7692 47.0001 24.633V24.633Z" fill="white"/>
</svg>
