<svg width="50" height="50" viewBox="0 0 50 50" fill="none" xmlns="http://www.w3.org/2000/svg">
<path d="M48.3361 13.336C48.0624 12.3043 47.5225 11.3627 46.7705 10.6052C46.0185 9.8478 45.0807 9.30115 44.0511 9.02C40.2661 8 25.1001 8 25.1001 8C25.1001 8 9.93407 8 6.15107 9.02C5.12087 9.30069 4.1825 9.84713 3.42994 10.6046C2.67738 11.3621 2.13705 12.304 1.86307 13.336C0.851074 17.142 0.851074 25.085 0.851074 25.085C0.851074 25.085 0.851074 33.027 1.86507 36.834C2.13903 37.8656 2.67913 38.8071 3.4313 39.5644C4.18348 40.3217 5.12136 40.8681 6.15107 41.149C9.93307 42.169 25.0991 42.169 25.0991 42.169C25.0991 42.169 40.2651 42.169 44.0471 41.149C45.0773 40.8683 46.0157 40.3219 46.7682 39.5644C47.5208 38.8069 48.0611 37.865 48.3351 36.833C49.3511 33.027 49.3511 25.085 49.3511 25.085C49.3511 25.085 49.3511 17.142 48.3361 13.336ZM20.1401 32.3V17.874L32.8161 25.085L20.1401 32.3Z" fill="white"/>
</svg>
