<?xml version="1.0" standalone="no"?>
<!DOCTYPE svg PUBLIC "-//W3C//DTD SVG 20010904//EN"
 "http://www.w3.org/TR/2001/REC-SVG-20010904/DTD/svg10.dtd">
<svg version="1.0" xmlns="http://www.w3.org/2000/svg"
 width="394.000000pt" height="394.000000pt" viewBox="0 0 394.000000 394.000000"
 preserveAspectRatio="xMidYMid meet">
<metadata>
Created by potrace 1.14, written by Peter Selinger 2001-2017
</metadata>
<g transform="translate(0.000000,394.000000) scale(0.100000,-0.100000)"
fill="#000000" stroke="none">
<path d="M2308 3191 c-50 -16 -207 -112 -232 -142 -31 -36 -49 -95 -73 -234
-9 -58 -20 -105 -23 -105 -3 0 -34 77 -69 170 -35 94 -66 169 -68 167 -9 -10
42 -210 78 -305 44 -115 45 -127 24 -232 -18 -85 -22 -106 -24 -135 -2 -14 -7
-7 -19 21 -9 22 -25 52 -34 65 -16 23 -16 23 -3 -16 7 -22 11 -42 9 -45 -7 -6
-24 22 -18 31 2 4 -3 10 -12 13 -16 6 -16 -15 2 -89 4 -17 2 -16 -13 5 -40 55
-124 147 -160 176 -106 86 -237 131 -350 120 -60 -5 -63 -4 -63 17 0 12 -8 33
-17 47 -9 13 -18 36 -20 52 -8 73 -70 132 -127 121 -49 -9 -264 -122 -286
-150 -56 -71 16 -164 140 -180 22 -3 40 -7 40 -9 0 -2 -27 -31 -60 -64 -107
-109 -157 -248 -147 -410 8 -124 29 -204 84 -320 82 -171 244 -304 411 -339
122 -25 297 -4 404 49 l43 22 -24 -22 c-25 -24 -25 -53 -2 -114 10 -24 14 -26
27 -15 9 8 14 22 11 37 -3 14 -1 20 5 14 5 -5 2 -56 -9 -130 -17 -119 -18
-120 -46 -126 -15 -3 -63 -21 -105 -39 -92 -40 -395 -145 -468 -162 -62 -14
-107 -12 -141 6 -31 17 -84 128 -151 314 -27 77 -91 246 -142 375 -90 231
-340 894 -404 1076 -28 77 -32 96 -22 115 12 25 74 71 85 65 3 -2 15 3 26 11
19 15 19 15 -5 8 -59 -18 -131 -59 -153 -88 -13 -18 -46 -72 -72 -120 -73
-135 -77 -116 148 -702 46 -121 169 -440 272 -710 202 -527 230 -592 271 -624
53 -41 92 -33 564 124 l437 145 65 -15 c71 -16 700 -150 1036 -220 296 -62
319 -61 460 29 86 54 111 84 132 156 17 55 86 433 266 1464 19 109 32 201 30
203 -5 6 -30 -75 -50 -162 -20 -85 -70 -378 -152 -885 -20 -124 -46 -270 -59
-325 -13 -55 -29 -129 -35 -165 -28 -156 -56 -192 -145 -184 -28 2 -61 6 -75
9 -14 3 -34 7 -46 9 -11 2 -49 11 -85 19 -35 9 -80 19 -99 22 -35 6 -135 27
-220 45 -25 6 -54 12 -65 15 -11 2 -51 13 -89 24 -58 17 -243 60 -327 76 -13
3 -35 7 -49 10 -14 2 -38 7 -55 10 -62 10 -175 43 -212 62 -24 12 -45 33 -57
57 -18 37 -18 39 7 184 24 142 76 449 137 812 16 96 32 186 35 200 3 14 10 54
15 90 21 130 90 505 100 540 5 19 10 54 10 76 0 26 7 51 19 65 18 22 27 24 98
23 54 -1 69 1 49 7 -49 14 -130 18 -158 10z m-1153 -333 c25 -20 55 -73 55
-98 0 -5 -17 -10 -38 -10 -26 0 -41 6 -50 20 -17 27 -47 25 -107 -8 -56 -31
-63 -50 -22 -69 15 -7 39 -19 55 -26 30 -14 41 -65 12 -58 -162 38 -221 76
-207 133 5 19 26 36 87 67 86 45 145 69 171 70 9 1 29 -9 44 -21z m-45 -98 c9
-17 5 -22 -40 -45 -40 -20 -55 -23 -70 -15 -31 17 -24 29 33 54 65 30 64 30
77 6z m349 -132 c84 -23 166 -71 228 -133 l63 -63 0 -107 0 -108 -48 74 c-92
140 -203 217 -327 226 -56 5 -71 2 -120 -22 -105 -51 -158 -159 -158 -320 0
-55 5 -113 10 -130 8 -26 11 -18 21 65 13 114 32 182 67 235 27 40 72 81 81
72 11 -11 82 -280 77 -293 -7 -19 -16 -18 -73 11 -28 14 -50 24 -50 22 0 -2
27 -23 60 -46 83 -59 81 -72 -22 -121 -94 -44 -93 -49 6 -20 38 11 73 17 79
13 9 -6 5 -72 -8 -108 -5 -14 -4 -16 3 -7 11 16 22 -28 22 -92 0 -74 14 -71
49 9 18 41 36 75 40 75 3 0 24 -43 45 -95 22 -52 41 -93 42 -92 2 2 -10 59
-26 127 -33 139 -33 140 -21 158 7 11 19 8 62 -13 56 -27 53 -22 -18 35 -18
14 -22 24 -17 47 5 24 16 33 75 57 38 16 68 31 65 33 -2 2 -32 -3 -66 -12 -34
-9 -64 -14 -66 -12 -8 8 -8 122 0 147 6 19 5 21 -3 10 -8 -12 -11 -6 -11 25
-1 22 -4 58 -8 80 l-8 40 -53 -97 c-30 -54 -56 -97 -57 -95 -2 2 -26 52 -53
112 -50 109 -50 110 -28 118 33 12 116 -1 174 -27 101 -47 197 -183 229 -326
14 -61 15 -74 3 -81 -9 -5 -10 -9 -2 -9 6 0 9 -8 7 -17 -2 -10 -5 -54 -7 -98
-5 -93 -33 -158 -92 -215 -29 -28 -46 -36 -93 -42 -51 -6 -49 -6 21 -4 l77 3
0 -58 c0 -32 -5 -61 -11 -65 -6 -3 -43 -7 -83 -7 -271 -2 -518 263 -565 608
l-10 70 3 -67 c3 -54 1 -68 -13 -73 -9 -4 -43 -17 -76 -30 l-60 -23 -3 61 c-1
34 -6 64 -11 67 -20 12 21 43 91 70 l73 28 1 44 c1 24 0 33 -3 22 -3 -15 -23
-29 -71 -48 -37 -14 -70 -26 -74 -26 -3 0 -2 18 3 41 5 22 7 43 5 47 -10 16
25 44 83 67 33 14 63 25 67 25 3 0 3 -19 0 -42 l-6 -43 14 45 c47 159 153 278
268 299 60 11 165 10 207 -1z m-427 -160 c-23 -34 -41 -47 -83 -62 -30 -10
-61 -21 -69 -24 -8 -3 -2 7 13 23 20 21 24 30 15 36 -8 5 6 16 42 32 87 38
105 45 108 41 2 -1 -9 -22 -26 -46z m-42 -510 c0 -3 -20 -14 -45 -24 -40 -15
-49 -24 -47 -46 1 -3 -6 -12 -15 -20 -14 -11 -16 -11 -8 2 18 30 15 39 -12 29
-33 -12 -33 -12 -30 12 3 16 21 28 73 48 64 25 83 25 84 -1z m-70 -148 c-8 -5
-19 -10 -25 -10 -5 0 -3 5 5 10 8 5 20 10 25 10 6 0 3 -5 -5 -10z m119 -34
c-2 -2 -33 -16 -69 -30 -35 -15 -60 -22 -55 -17 6 5 33 19 60 30 47 19 73 26
64 17z m684 -416 c-3 -12 -8 -19 -11 -16 -5 6 5 36 12 36 2 0 2 -9 -1 -20z"/>
<path d="M1121 1994 c0 -11 3 -14 6 -6 3 7 2 16 -1 19 -3 4 -6 -2 -5 -13z"/>
<path d="M1160 1891 c0 -6 4 -13 10 -16 6 -3 7 1 4 9 -7 18 -14 21 -14 7z"/>
<path d="M1210 1806 c0 -2 8 -10 18 -17 15 -13 16 -12 3 4 -13 16 -21 21 -21
13z"/>
<path d="M1275 1730 c21 -22 41 -40 44 -40 3 0 -13 18 -34 40 -21 22 -41 40
-44 40 -3 0 13 -18 34 -40z"/>
<path d="M1394 1646 c11 -9 24 -16 30 -16 12 0 7 5 -24 19 -24 11 -24 11 -6
-3z"/>
<path d="M2518 3163 c7 -3 16 -2 19 1 4 3 -2 6 -13 5 -11 0 -14 -3 -6 -6z"/>
<path d="M2788 3103 c7 -3 16 -2 19 1 4 3 -2 6 -13 5 -11 0 -14 -3 -6 -6z"/>
<path d="M2922 2909 c-45 -13 -48 -30 -13 -68 17 -18 34 -49 38 -69 11 -51 8
-161 -7 -266 -10 -73 -16 -89 -34 -96 -20 -9 -307 -43 -311 -38 -1 2 -12 25
-25 52 -29 62 -82 88 -168 84 -50 -3 -57 -6 -60 -24 -2 -12 19 -60 46 -107 33
-58 67 -142 106 -261 l56 -174 45 -17 c49 -19 74 -15 82 15 3 11 13 20 22 20
9 0 40 3 69 6 46 6 52 4 52 -12 0 -11 -27 -145 -61 -299 -59 -273 -79 -416
-65 -469 9 -37 19 -33 48 22 43 81 65 157 134 457 36 160 68 293 71 298 2 4
38 7 78 7 l75 0 -12 -25 c-14 -31 3 -47 69 -65 33 -10 47 -9 69 2 24 11 116
117 225 258 23 30 31 34 67 32 33 -2 43 1 52 19 10 19 4 37 -48 138 -79 153
-91 161 -211 138 -130 -24 -250 -41 -256 -36 -9 9 59 199 71 199 26 0 64 61
64 101 0 129 -133 217 -268 178z m317 -702 c-45 -78 -84 -144 -85 -146 -2 -2
-44 -6 -94 -9 -83 -4 -90 -3 -90 14 0 25 55 262 62 270 10 9 283 30 286 21 2
-4 -33 -72 -79 -150z m-365 -21 l-29 -136 -92 0 c-51 0 -93 1 -93 3 0 1 -11
54 -24 117 -14 63 -23 116 -22 117 4 4 281 40 284 37 2 -1 -9 -63 -24 -138z"/>
</g>
</svg>
